<svg xmlns="http://www.w3.org/2000/svg" width="61" height="60" viewBox="0 0 61 60"><g><g><g><g><path fill="#fff" d="M9.326 33.083L2.038 45.708l7.288 12.625h14.579l7.29-12.625-7.29-12.625z"/></g><g><path fill="#fff" d="M23.905 27.014l7.29-12.624-7.29-12.625H9.326L2.038 14.39l7.288 12.624z"/></g><g><path fill="#fff" d="M51.694 17.812H37.116l-7.29 12.624 7.29 12.626h14.578l7.29-12.626z"/></g><g><path fill="#fff" d="M51.694 43.062H37.116l-7.29-12.625 7.29-12.625h14.578l7.29 12.625zm1.019-27.015H36.097L27.79 30.436l8.308 14.39h16.616l8.308-14.39z"/></g><g><path fill="#fff" d="M23.905 58.333H9.326L2.038 45.708l7.288-12.625h14.579l7.29 12.625zM8.308 31.319L0 45.708l8.308 14.389h16.615l8.308-14.389-8.308-14.389z"/></g><g><path fill="#fff" d="M9.326 1.765h14.579l7.29 12.625-7.29 12.624H9.326L2.038 14.39zm15.597 27.014l8.308-14.389L24.923 0H8.308L0 14.39l8.308 14.388h16.615z"/></g></g></g></g></svg>