<svg xmlns="http://www.w3.org/2000/svg" width="285" height="60"><path fill="#fff" d="M279.932 25.753h4.8v1.78h-4.8zm0 2.62h2.02v5.72h-2.02zm-9.34 8.32s1.47-.56 1.72-1l1-2 2.92-8.22 2.12.48-4.54 11.23c-.19.45-2.55 1.2-2.55 1.2zm-1.09-10.76l2.11-.46 1.95 5.37-1.22 1.92zm-3.55-.18h2.02v8.34h-2.02zm-6.17 7.06s1.35-.81 1.43-1.29l.99-5.77h2.92v1.68h-1.22l-.94 5.46c-.08.45-2.28 1.57-2.28 1.57zm-.57.98s-1.05.58-2.48.58c-2.57 0-4.21-1.73-4.21-4.3 0-2.8 1.62-4.6 4.46-4.6 1.01 0 1.9.3 1.9.3l-.14 1.75s-1-.2-1.76-.2c-1.66 0-2.37.96-2.37 2.75 0 1.65.98 2.47 2.3 2.47.83 0 1.92-.33 1.92-.33zm-15.95-1.08s2.01-.57 2.52-1.17l.4-.47 3.46-9.36 2.07.62-4.14 10.06c-.57 1.37-3.65 2.07-3.65 2.07zm-1.8-10.35l2-.65 2.99 6.89-1.2 1.79zm-14.29 3.97l1.88-.86 2.07 2.51-1.42 1.29zm4.48 2.31l2.56-3.17 1.81.93-4.48 4.84-2.7 3.22-1.87-.92zm.45 3.23l1.29-1.32 2.78 2.99-1.83.92zm-8.7-6.12h2.03v8.34h-2.03zm-7.86 0h2.02v5.8h-2.02zm2.84 2.57s.61-.15.78-.15c2.04 0 3.12 1.28 3.12 2.87 0 1.63-1.12 3.05-3.14 3.05h-3.6v-1.7h3.42c.97 0 1.43-.6 1.42-1.4-.02-.85-.45-1.29-1.47-1.29-.12 0-.52.05-.52.05zm-7.56-2.57h2.02v8.34h-2.02zm-5.29 0h2.02v3.07h2.44v1.78h-2.44v3.49h-2.02zm-4.72 0h2.02v8.34h-2.02zm-5.29 0h2.02v3.07h2.44v1.78h-2.44v3.49h-2.02zm-6.45-.28c2.52 0 4.4 1.86 4.4 4.45s-1.67 3.92-3.2 4.3l-.37-1.71c.7-.25 1.59-1.01 1.59-2.59 0-1.75-1.17-2.72-2.42-2.72zm.05 8.9c-2.54 0-4.41-1.86-4.41-4.45s1.72-3.97 3.19-4.3l.38 1.73c-.71.23-1.58.98-1.58 2.57 0 1.75 1.15 2.72 2.42 2.72zm-10.78-8.37s.8-.53 1.59-.53c1.78 0 3.27 1.41 3.27 4.32 0 2.68-1.67 4.58-4.33 4.58-.21 0-.45-.03-.45-.03l.14-1.73s.16.03.31.03c1.41 0 2.34-1 2.34-2.79 0-1.85-.67-2.57-1.6-2.57-.48 0-.9.2-.9.2zm-2.63-.25h2.01v12.34h-2.01zm-8.5 0h6.71v1.78h-6.71zm2.34 2.62h2.02v5.72h-2.02zm-10.46-2.62h2.02v8.34h-2.02zm2.85 5.24v-2.2l2.82-3.36 1.49.97-2.96 3.45 3.44 3.69-1.85.92zm-9.44-1.59l2.69-.41v-.1c0-1.19-.49-1.82-1.49-1.82-1.05 0-1.97.56-1.97 3 0 1.87.76 2.6 2.27 2.6 1.25 0 2.59-.5 2.59-.5l.32 1.49s-1.11.71-3.16.71c-2.55 0-3.95-1.76-3.95-4.3 0-3.05 1.83-4.6 3.9-4.6 2.1 0 3.32 1.25 3.32 3.4 0 .78-.16 1.38-.16 1.38l-4.16.45zm-6.62-3.65h2.02v8.34h-2.02zm-6.17 7.06s1.35-.81 1.43-1.29l.99-5.77h2.92v1.68h-1.22l-.94 5.46c-.08.45-2.28 1.57-2.28 1.57zm-10.75-.96s1.54.74 3.49.74c2.44 0 4.09-1.29 4.09-4.51 0-3.21-1.62-4.5-4.09-4.5-1.58 0-3.49.55-3.49.55l-.33-1.73s1.95-.69 3.82-.69c3.9 0 6.19 2.64 6.19 6.37 0 3.74-2.29 6.38-6.19 6.38-2.6 0-4.04-.9-4.04-.9zm1.21-4.65l5.52.08v1.62l-5.52.09zm-12.92-1.2s.81-.53 1.59-.53c1.78 0 3.27 1.41 3.27 4.32 0 2.68-1.67 4.58-4.32 4.58-.22 0-.45-.03-.45-.03l.13-1.73s.17.03.32.03c1.4 0 2.33-1 2.33-2.79 0-1.85-.66-2.57-1.6-2.57-.48 0-.9.2-.9.2zm-2.63-.25h2.02v12.34h-2.02zm-8.49 0h6.7v1.78h-6.7zm2.33 2.62h2.02v5.72h-2.02zm-6.14-2.62h2.02v8.34h-2.02zm-5.28 0h2.02v3.07h2.43v1.78h-2.43v3.49h-2.02zm-6.59 3.65l2.68-.41v-.1c0-1.19-.48-1.82-1.48-1.82-1.05 0-1.97.56-1.97 3 0 1.87.75 2.6 2.27 2.6 1.25 0 2.58-.5 2.58-.5l.32 1.49s-1.1.71-3.15.71c-2.55 0-3.95-1.76-3.95-4.3 0-3.05 1.83-4.6 3.9-4.6 2.1 0 3.32 1.25 3.32 3.4 0 .78-.17 1.38-.17 1.38l-4.15.45zm-7.54-7.32h2.02v9.22h-2.02zm-6.89 0h2.02v10.23h6.89l2.03 3.1-1.57.8-1.98-2.12h-7.39zm-66.696 11L2.038 45.708l7.288 12.625h14.579l7.29-12.625-7.29-12.625zm14.579-6.069l7.29-12.624-7.29-12.625H9.326L2.038 14.39l7.288 12.624zm27.789-9.202H37.116l-7.29 12.624 7.29 12.626h14.578l7.29-12.626z"/><path fill="#fff" d="M51.694 43.062H37.116l-7.29-12.625 7.29-12.625h14.578l7.29 12.625zm1.019-27.015H36.097L27.79 30.436l8.308 14.39h16.616l8.308-14.39zM23.905 58.333H9.326L2.038 45.708l7.288-12.625h14.579l7.29 12.625zM8.308 31.319L0 45.708l8.308 14.389h16.615l8.308-14.389-8.308-14.389zM9.326 1.765h14.579l7.29 12.625-7.29 12.624H9.326L2.038 14.39zm15.597 27.014l8.308-14.389L24.923 0H8.308L0 14.39l8.308 14.388h16.615z"/></svg>